<?xml version="1.0" encoding="utf-8"?>
<!-- Generator: Adobe Illustrator 19.0.0, SVG Export Plug-In . SVG Version: 6.00 Build 0)  -->
<svg version="1.1" id="图层_1" xmlns="http://www.w3.org/2000/svg" xmlns:xlink="http://www.w3.org/1999/xlink" x="0px" y="0px"
	 viewBox="0 0 60 60" style="enable-background:new 0 0 60 60;" xml:space="preserve">
<style type="text/css">
	.st0{fill-rule:evenodd;clip-rule:evenodd;fill:#FF5050;}
</style>
<g id="XMLID_13_">
	<path id="XMLID_14_" class="st0" d="M30,58.2C14.4,58.2,1.8,45.6,1.8,30C1.8,14.4,14.4,1.8,30,1.8c15.6,0,28.2,12.6,28.2,28.2
		C58.2,45.6,45.6,58.2,30,58.2L30,58.2L30,58.2z M34.3,16.3c0-2.2-2.2-3.9-4.4-3.9c-2.2,0-4.3,1.8-4.3,3.9l1.1,16.3
		c0,2.2,1,3.9,3.2,3.9c2.2,0,3.3-1.8,3.3-3.9L34.3,16.3L34.3,16.3L34.3,16.3z M30.1,38.6c-2.4,0-4.4,2-4.4,4.4c0,2.4,2,4.4,4.4,4.4
		c2.4,0,4.4-2,4.4-4.4C34.5,40.6,32.5,38.6,30.1,38.6L30.1,38.6L30.1,38.6z"/>
</g>
</svg>
