<?xml version="1.0" encoding="utf-8"?>
<!-- Generator: Adobe Illustrator 19.0.0, SVG Export Plug-In . SVG Version: 6.00 Build 0)  -->
<svg version="1.1" id="图层_1" xmlns="http://www.w3.org/2000/svg" xmlns:xlink="http://www.w3.org/1999/xlink" x="0px" y="0px"
	 viewBox="0 0 60 60" style="enable-background:new 0 0 60 60;" xml:space="preserve">
<style type="text/css">
	.st0{fill-rule:evenodd;clip-rule:evenodd;fill:#919191;}
	.st1{fill-rule:evenodd;clip-rule:evenodd;fill:#9C9C9C;}
	.st2{fill-rule:evenodd;clip-rule:evenodd;fill:#B2B2B2;}
	.st3{fill-rule:evenodd;clip-rule:evenodd;fill:#CFCFCF;}
</style>
<path id="XMLID_8_" class="st0" d="M22.3,7.9c0-4.4,3.5-7.9,7.9-7.9s7.9,3.5,7.9,7.9s-3.5,7.9-7.9,7.9S22.3,12.3,22.3,7.9L22.3,7.9z
	"/>
<path id="XMLID_7_" class="st1" d="M39.1,14.9c0-4.4,3.5-7.9,7.9-7.9s7.9,3.5,7.9,7.9c0,4.4-3.5,7.9-7.9,7.9S39.1,19.2,39.1,14.9
	L39.1,14.9z"/>
<path id="XMLID_6_" class="st2" d="M50,31.6c0-2.2,1.8-4,4-4s4,1.8,4,4s-1.8,4-4,4S50,33.8,50,31.6L50,31.6z"/>
<path id="XMLID_5_" class="st3" d="M43,48.4c0-2.2,1.8-4,4-4c2.2,0,4,1.8,4,4s-1.8,4-4,4C44.8,52.4,43,50.6,43,48.4L43,48.4z"/>
<path id="XMLID_4_" class="st3" d="M26.3,55.4L26.3,55.4c0-2.2,1.8-4,4-4s4,1.8,4,4l0,0c0,2.2-1.8,4-4,4S26.3,57.6,26.3,55.4
	L26.3,55.4z"/>
<path id="XMLID_3_" class="st3" d="M9.5,48.4L9.5,48.4c0-2.2,1.8-4,4-4s4,1.8,4,4l0,0c0,2.2-1.8,4-4,4S9.5,50.6,9.5,48.4L9.5,48.4z"
	/>
<path id="XMLID_2_" class="st3" d="M7.5,14.9L7.5,14.9c0-3.3,2.7-5.9,5.9-5.9s5.9,2.7,5.9,5.9l0,0c0,3.3-2.7,5.9-5.9,5.9
	S7.5,18.1,7.5,14.9L7.5,14.9z"/>
<path id="XMLID_1_" class="st3" d="M2,31.6c0-2.5,2-4.4,4.4-4.4c2.5,0,4.4,2,4.4,4.4s-2,4.4-4.4,4.4C4,36.1,2,34.1,2,31.6L2,31.6z"
	/>
</svg>
